<svg xmlns="http://www.w3.org/2000/svg" width="80" height="102" viewBox="0 0 80 102">
  <g id="Group_2300" data-name="Group 2300" transform="translate(-1110 -5814)">
    <g id="Rectangle_2114" data-name="Rectangle 2114" transform="translate(1110 5814)" fill="none" stroke="#f1f6f9" stroke-width="1">
      <rect width="80" height="102" rx="40" stroke="none"/>
      <rect x="0.5" y="0.5" width="79" height="101" rx="39.5" fill="none"/>
    </g>
    <g id="Group_2300-2" data-name="Group 2300" transform="translate(994.499 5647.232)">
      <path id="Path_27119" data-name="Path 27119" d="M304.722,186.2c4.734,0,8.676,6.461,8.666,12.171a11.041,11.041,0,0,1-11.094,10.992c-6.461,0-11.094-4.247-11.094-9.753,0-4.582,2.977-4.866,6.868-7.579C302.548,188.9,301.593,186.2,304.722,186.2Z" transform="translate(-147.788 0)" fill="#f4acb7"/>
      <path id="Path_27120" data-name="Path 27120" d="M133.994,273.725a3.924,3.924,0,0,1,1.412,2.469h-1.961a2.068,2.068,0,0,0-.792-1.3,2.516,2.516,0,0,0-1.565-.478,2.4,2.4,0,0,0-1.788.752,3.741,3.741,0,0,0,0,4.389,2.37,2.37,0,0,0,1.788.752,2.516,2.516,0,0,0,1.565-.478,2.143,2.143,0,0,0,.792-1.321h1.961a3.976,3.976,0,0,1-1.412,2.479,4.412,4.412,0,0,1-2.875.914,4.68,4.68,0,0,1-2.3-.549,3.831,3.831,0,0,1-1.565-1.575,5.052,5.052,0,0,1-.559-2.438,4.863,4.863,0,0,1,.569-2.418,3.955,3.955,0,0,1,1.565-1.575,4.793,4.793,0,0,1,2.3-.549A4.465,4.465,0,0,1,133.994,273.725Z" transform="translate(0 -77.802)" fill="#f1f6f9"/>
      <path id="Path_27121" data-name="Path 27121" d="M327.539,244.1H325.7V256h1.839Z" transform="translate(-178.783 -52.018)" fill="#f1f6f9"/>
      <path id="Path_27122" data-name="Path 27122" d="M367.5,274.923a3.978,3.978,0,0,0-1.625-1.575,5.048,5.048,0,0,0-2.337-.549,4.857,4.857,0,0,0-2.327.549,4.041,4.041,0,0,0-1.626,1.575,5.256,5.256,0,0,0,0,4.836,3.939,3.939,0,0,0,1.626,1.585,5.229,5.229,0,0,0,4.663,0,3.975,3.975,0,0,0,1.625-1.575,4.852,4.852,0,0,0,.579-2.428A4.563,4.563,0,0,0,367.5,274.923Zm-1.676,4.064a2.351,2.351,0,0,1-.965.975,2.734,2.734,0,0,1-1.321.325,2.823,2.823,0,0,1-1.321-.325,2.476,2.476,0,0,1-.965-.975,3.343,3.343,0,0,1-.366-1.646,3.384,3.384,0,0,1,.366-1.636,2.319,2.319,0,0,1,.965-.985,2.734,2.734,0,0,1,1.321-.325,2.823,2.823,0,0,1,1.321.325,2.438,2.438,0,0,1,.965.985,3.356,3.356,0,0,1,.366,1.636A3.182,3.182,0,0,1,365.827,278.987Z" transform="translate(-208.7 -77.802)" fill="#f1f6f9"/>
      <path id="Path_27123" data-name="Path 27123" d="M562.519,238.4a1.22,1.22,0,0,1,.853-.3,1.2,1.2,0,0,1,.864.3.985.985,0,0,1,.325.772.947.947,0,0,1-.325.752,1.289,1.289,0,0,1-.864.295,1.192,1.192,0,0,1-.853-.295.943.943,0,0,1-.325-.752A.953.953,0,0,1,562.519,238.4Z" transform="translate(-391.25 -46.627)" fill="#f1f6f9"/>
      <path id="Path_27124" data-name="Path 27124" d="M566.639,273.9H564.8v8.849h1.839Z" transform="translate(-393.592 -78.79)" fill="#f1f6f9"/>
      <path id="Path_27125" data-name="Path 27125" d="M231.859,277.341a4.863,4.863,0,0,0-.569-2.418,3.955,3.955,0,0,0-1.565-1.575,4.793,4.793,0,0,0-2.3-.549,4.652,4.652,0,0,0-2.3.549,3.892,3.892,0,0,0-1.565,1.575,4.946,4.946,0,0,0-.569,2.418,4.876,4.876,0,0,0,.569,2.428,3.955,3.955,0,0,0,1.565,1.575,5.079,5.079,0,0,0,4.592,0,3.831,3.831,0,0,0,1.565-1.575,4.395,4.395,0,0,0,.417-1.077H229.9a2.189,2.189,0,0,1-.61,1.046,2.686,2.686,0,0,1-1.839.66,2.639,2.639,0,0,1-1.839-.66,2.774,2.774,0,0,1-.752-2.022h7.02A1.557,1.557,0,0,1,231.859,277.341Zm-7-.9a2.42,2.42,0,0,1,2.56-2.174,2.571,2.571,0,0,1,1.819.66,2.417,2.417,0,0,1,.742,1.514Z" transform="translate(-86.517 -77.802)" fill="#f1f6f9"/>
      <path id="Path_27126" data-name="Path 27126" d="M470.2,273.306a3.99,3.99,0,0,1,.945,2.845v5.181h-1.849v-4.978a2.666,2.666,0,0,0-.61-1.849,2.212,2.212,0,0,0-1.686-.65,2.32,2.32,0,0,0-1.778.7,2.853,2.853,0,0,0-.671,2.052v4.724H462.7V272.5h1.849v1.6a3.48,3.48,0,0,1,3.149-1.8A3.233,3.233,0,0,1,470.2,273.306Z" transform="translate(-301.865 -77.353)" fill="#f1f6f9"/>
      <path id="Path_27127" data-name="Path 27127" d="M604.6,275.053h-1.8c0-.935-.955-1.392-1.92-1.392-.731,0-1.575.376-1.575,1.087,0,.742.8.975,2.245,1.392,1.9.528,3.271,1.016,3.271,2.794,0,1.656-1.92,2.479-3.739,2.479-2.215,0-4.084-1.107-4.084-2.956h1.89c.041.985,1.209,1.5,2.144,1.5.965,0,2.022-.284,2.022-1.077,0-.924-.782-1.087-2.326-1.554-1.94-.589-3.282-.935-3.282-2.55s1.737-2.479,3.495-2.479C603.157,272.3,604.6,273.478,604.6,275.053Z" transform="translate(-422.521 -77.353)" fill="#f1f6f9"/>
    </g>
    <text id="Platinum_partner" data-name="Platinum
partner" transform="translate(1149 5877)" fill="#fdfffc" font-size="12" font-family="ObjectSans-Regular, Object Sans"><tspan x="-31.392" y="0">PLATINUM</tspan><tspan x="-28.356" y="16">PARTNER</tspan></text>
  </g>
</svg>
